{
	"scenes":[{
		"nodes":[0,
		1]
	}],
	"asset":{
		"version":"2.0",
		"generator":"Maxon Cinema 4D 2025.3.3 (#200000219)"
	},
	"nodes":[{
		"name":"Null.1",
		"children":[2]
	},
	{
		"name":"Null",
		"translation":[0.0,
		0.0,
		0.0],
		"rotation":[0.0,
		-0.13917310535907746,
		0.0,
		0.9902680516242981],
		"scale":[1.0,
		1.0,
		1.0],
		"children":[3]
	},
	{
		"name":"bobing",
		"translation":[0.0,
		-0.0041754660196602348,
		0.0],
		"rotation":[0.46708399057388308,
		-0.3927527070045471,
		0.21600210666656495,
		0.7621816992759705],
		"scale":[1.0,
		1.0,
		1.0],
		"children":[4,
		5,
		6,
		7,
		8,
		9,
		10]
	},
	{
		"name":"RS Camera",
		"camera":0,
		"translation":[0.0,
		0.0,
		24.16786766052246],
		"rotation":[0.0,
		0.0,
		0.0,
		-1.0],
		"scale":[1.0,
		1.0,
		1.0]
	},
	{
		"name":"BitcoinSign.svg.1",
		"translation":[0.024634867906570436,
		-0.1132482960820198,
		-9.103828722516945e-17],
		"rotation":[0.02821904979646206,
		-0.706543505191803,
		0.706543505191803,
		-0.02821904979646206],
		"scale":[1.0,
		1.0,
		1.0],
		"children":[11]
	},
	{
		"name":"BitcoinSign.svg",
		"translation":[0.006365135777741671,
		0.11510397493839264,
		-2.2204459996194765e-18],
		"rotation":[0.706543505191803,
		0.02821904979646206,
		-0.02821904979646206,
		-0.706543505191803],
		"scale":[1.0,
		1.0,
		1.0],
		"children":[12]
	},
	{
		"name":"Cylinder.1",
		"mesh":0,
		"translation":[6.128516638317603e-18,
		-1.0393483037698165e-17,
		-9.621414987817708e-18],
		"rotation":[4.1600196789602447e-17,
		-1.6614944171184064e-18,
		0.03990776464343071,
		0.9992033839225769],
		"scale":[1.0,
		1.0,
		1.0]
	},
	{
		"name":"Tube.3",
		"mesh":1,
		"translation":[-0.00001931443330249749,
		0.0002414099290035665,
		1.0775555446530694e-16],
		"rotation":[5.546693015571074e-17,
		-2.2153259584229264e-18,
		0.03990776464343071,
		0.9992033839225769],
		"scale":[1.0,
		1.0,
		1.0]
	},
	{
		"name":"Tube.4",
		"mesh":2,
		"translation":[-0.00001931443330249749,
		0.0002414099290035665,
		1.0775555446530694e-16],
		"rotation":[4.1600196789602447e-17,
		-1.6614944171184064e-18,
		0.03990776464343071,
		0.9992033839225769],
		"scale":[1.0,
		1.0,
		1.0]
	},
	{
		"name":"Tube.5",
		"mesh":3,
		"translation":[-0.00001931443330249749,
		0.0002414099290035665,
		1.168865497843736e-16],
		"rotation":[5.546693015571074e-17,
		-2.2153259584229264e-18,
		0.03990776464343071,
		0.9992033839225769],
		"scale":[1.0,
		1.0,
		1.0]
	},
	{
		"name":"Tube",
		"mesh":4,
		"translation":[-0.00001931443330249749,
		0.0002414099290035665,
		8.992605355608575e-17],
		"rotation":[5.546693015571074e-17,
		-2.2153259584229264e-18,
		0.03990776464343071,
		0.9992033839225769],
		"scale":[1.0,
		1.0,
		1.0]
	},
	{
		"name":"Null",
		"translation":[0.0,
		-2.2204460823375377e-17,
		-4.884981281880909e-17],
		"rotation":[0.0,
		0.0,
		0.0,
		-1.0],
		"scale":[9.729999542236329,
		9.729999542236329,
		9.729999542236329],
		"children":[13]
	},
	{
		"name":"Null",
		"translation":[3.552713599391162e-17,
		4.440891999238953e-18,
		8.881783998477906e-18],
		"rotation":[0.0,
		0.0,
		0.0,
		-1.0],
		"scale":[9.729999542236329,
		9.729999542236329,
		9.729999542236329],
		"children":[14]
	},
	{
		"name":"Null",
		"translation":[-0.04858590289950371,
		-0.06350969523191452,
		6.661337998858429e-18],
		"rotation":[0.0,
		0.0,
		0.0,
		-1.0],
		"scale":[1.0,
		1.0,
		1.0],
		"children":[15]
	},
	{
		"name":"Null",
		"translation":[-0.04858590289950371,
		-0.06350969523191452,
		5.551114999048691e-19],
		"rotation":[0.0,
		0.0,
		0.0,
		-1.0],
		"scale":[1.0,
		1.0,
		1.0],
		"children":[16]
	},
	{
		"name":"Fill",
		"children":[17,
		18]
	},
	{
		"name":"Fill",
		"children":[19,
		20]
	},
	{
		"name":"Fill",
		"mesh":5
	},
	{
		"name":"Fill.1",
		"mesh":6
	},
	{
		"name":"Fill",
		"mesh":7
	},
	{
		"name":"Fill.1",
		"mesh":8
	}],
	"meshes":[{
		"name":"Cylinder.1",
		"primitives":[{
			"attributes":{
				"POSITION":5,
				"NORMAL":6,
				"TEXCOORD_0":7
			},
			"indices":4,
			"material":0
		}]
	},
	{
		"name":"Tube.3",
		"primitives":[{
			"attributes":{
				"POSITION":9,
				"NORMAL":10,
				"TEXCOORD_0":11
			},
			"indices":8,
			"material":1
		}]
	},
	{
		"name":"Tube.4",
		"primitives":[{
			"attributes":{
				"POSITION":13,
				"NORMAL":14,
				"TEXCOORD_0":15
			},
			"indices":12,
			"material":2
		}]
	},
	{
		"name":"Tube.5",
		"primitives":[{
			"attributes":{
				"POSITION":17,
				"NORMAL":18,
				"TEXCOORD_0":19
			},
			"indices":16,
			"material":1
		}]
	},
	{
		"name":"Tube",
		"primitives":[{
			"attributes":{
				"POSITION":21,
				"NORMAL":22,
				"TEXCOORD_0":23
			},
			"indices":20,
			"material":1
		}]
	},
	{
		"name":"Fill",
		"primitives":[{
			"attributes":{
				"POSITION":25,
				"NORMAL":26,
				"TEXCOORD_0":27
			},
			"indices":24,
			"material":1
		}]
	},
	{
		"name":"Fill.1",
		"primitives":[{
			"attributes":{
				"POSITION":29,
				"NORMAL":30,
				"TEXCOORD_0":31
			},
			"indices":28,
			"material":2
		}]
	},
	{
		"name":"Fill",
		"primitives":[{
			"attributes":{
				"POSITION":33,
				"NORMAL":34,
				"TEXCOORD_0":35
			},
			"indices":32,
			"material":1
		}]
	},
	{
		"name":"Fill.1",
		"primitives":[{
			"attributes":{
				"POSITION":37,
				"NORMAL":38,
				"TEXCOORD_0":39
			},
			"indices":36,
			"material":2
		}]
	}],
	"cameras":[{
		"type":"perspective",
		"perspective":{
			"znear":0.009999999776482582,
			"zfar":10000000000.0,
			"aspectRatio":1.0,
			"yfov":0.17951634526252747
		}
	}],
	"accessors":[{
		"bufferView":0,
		"type":"SCALAR",
		"componentType":5126,
		"count":151,
		"byteOffset":0,
		"min":[0.0],
		"max":[6.0]
	},
	{
		"bufferView":0,
		"type":"VEC3",
		"componentType":5126,
		"count":151,
		"byteOffset":604,
		"min":[0.0,
		-0.047126635909080508,
		0.0],
		"max":[0.0,
		0.04950588941574097,
		0.0]
	},
	{
		"bufferView":1,
		"type":"SCALAR",
		"componentType":5126,
		"count":151,
		"byteOffset":0,
		"min":[0.0],
		"max":[6.0]
	},
	{
		"bufferView":1,
		"type":"VEC4",
		"componentType":5126,
		"count":151,
		"byteOffset":604,
		"min":[0.46652525663375857,
		-0.39844927191734316,
		0.21536464989185334,
		0.7466248869895935],
		"max":[0.4904692769050598,
		-0.38191163539886477,
		0.2317044734954834,
		0.7626013159751892]
	},
	{
		"bufferView":2,
		"type":"SCALAR",
		"componentType":5123,
		"count":1920,
		"byteOffset":0,
		"min":[0],
		"max":[454]
	},
	{
		"bufferView":3,
		"type":"VEC3",
		"componentType":5126,
		"count":455,
		"byteOffset":0,
		"min":[-0.9469872117042542,
		-0.03932289406657219,
		-0.9469872117042542],
		"max":[0.9469872117042542,
		0.03932289406657219,
		0.9469872117042542]
	},
	{
		"bufferView":3,
		"type":"VEC3",
		"componentType":5126,
		"count":455,
		"byteOffset":12,
		"min":[-1.0,
		-1.0,
		-1.0],
		"max":[1.0,
		1.0,
		1.0]
	},
	{
		"bufferView":3,
		"type":"VEC2",
		"componentType":5126,
		"count":455,
		"byteOffset":24,
		"min":[0.0,
		0.0],
		"max":[1.0,
		1.0]
	},
	{
		"bufferView":4,
		"type":"SCALAR",
		"componentType":5123,
		"count":1536,
		"byteOffset":0,
		"min":[0],
		"max":[324]
	},
	{
		"bufferView":5,
		"type":"VEC3",
		"componentType":5126,
		"count":325,
		"byteOffset":0,
		"min":[-0.8991080522537231,
		-0.13406115770339967,
		-0.8991080522537231],
		"max":[0.8991080522537231,
		0.13406115770339967,
		0.8991080522537231]
	},
	{
		"bufferView":5,
		"type":"VEC3",
		"componentType":5126,
		"count":325,
		"byteOffset":12,
		"min":[-1.0,
		0.0,
		-1.0],
		"max":[1.0,
		0.0,
		1.0]
	},
	{
		"bufferView":5,
		"type":"VEC2",
		"componentType":5126,
		"count":325,
		"byteOffset":24,
		"min":[0.0,
		0.0],
		"max":[1.0,
		1.0]
	},
	{
		"bufferView":6,
		"type":"SCALAR",
		"componentType":5123,
		"count":768,
		"byteOffset":0,
		"min":[0],
		"max":[255]
	},
	{
		"bufferView":7,
		"type":"VEC3",
		"componentType":5126,
		"count":256,
		"byteOffset":0,
		"min":[-1.0,
		-0.13406115770339967,
		-1.0],
		"max":[1.0,
		0.13406115770339967,
		1.0]
	},
	{
		"bufferView":7,
		"type":"VEC3",
		"componentType":5126,
		"count":256,
		"byteOffset":12,
		"min":[0.0,
		-1.0,
		0.0],
		"max":[0.0,
		1.0,
		0.0]
	},
	{
		"bufferView":7,
		"type":"VEC2",
		"componentType":5126,
		"count":256,
		"byteOffset":24,
		"min":[0.0,
		0.0],
		"max":[1.0,
		1.0]
	},
	{
		"bufferView":8,
		"type":"SCALAR",
		"componentType":5123,
		"count":1536,
		"byteOffset":0,
		"min":[0],
		"max":[324]
	},
	{
		"bufferView":9,
		"type":"VEC3",
		"componentType":5126,
		"count":325,
		"byteOffset":0,
		"min":[-1.0,
		-0.13406115770339967,
		-1.0],
		"max":[1.0,
		0.13406115770339967,
		1.0]
	},
	{
		"bufferView":9,
		"type":"VEC3",
		"componentType":5126,
		"count":325,
		"byteOffset":12,
		"min":[-1.0,
		0.0,
		-1.0],
		"max":[1.0,
		0.0,
		1.0]
	},
	{
		"bufferView":9,
		"type":"VEC2",
		"componentType":5126,
		"count":325,
		"byteOffset":24,
		"min":[0.0,
		0.0],
		"max":[1.0,
		1.0]
	},
	{
		"bufferView":10,
		"type":"SCALAR",
		"componentType":5123,
		"count":3840,
		"byteOffset":0,
		"min":[0],
		"max":[905]
	},
	{
		"bufferView":11,
		"type":"VEC3",
		"componentType":5126,
		"count":906,
		"byteOffset":0,
		"min":[-1.0427145957946778,
		-0.13355699181556703,
		-1.0427145957946778],
		"max":[1.0427145957946778,
		0.13355699181556703,
		1.0427145957946778]
	},
	{
		"bufferView":11,
		"type":"VEC3",
		"componentType":5126,
		"count":906,
		"byteOffset":12,
		"min":[-1.0,
		-1.0,
		-1.0],
		"max":[1.0,
		1.0,
		1.0]
	},
	{
		"bufferView":11,
		"type":"VEC2",
		"componentType":5126,
		"count":906,
		"byteOffset":24,
		"min":[0.0,
		0.0],
		"max":[1.0,
		1.0]
	},
	{
		"bufferView":12,
		"type":"SCALAR",
		"componentType":5123,
		"count":1527,
		"byteOffset":0,
		"min":[0],
		"max":[574]
	},
	{
		"bufferView":13,
		"type":"VEC3",
		"componentType":5126,
		"count":575,
		"byteOffset":0,
		"min":[0.004179710987955332,
		0.0020972636993974449,
		-0.014583921059966088],
		"max":[0.09299209713935852,
		0.12492213398218155,
		4.382681231582065e-18]
	},
	{
		"bufferView":13,
		"type":"VEC3",
		"componentType":5126,
		"count":575,
		"byteOffset":12,
		"min":[-1.0,
		-1.0,
		-1.0],
		"max":[1.0,
		1.0,
		0.0]
	},
	{
		"bufferView":13,
		"type":"VEC2",
		"componentType":5126,
		"count":575,
		"byteOffset":24,
		"min":[0.0,
		0.0],
		"max":[1.0,
		1.0]
	},
	{
		"bufferView":14,
		"type":"SCALAR",
		"componentType":5123,
		"count":513,
		"byteOffset":0,
		"min":[0],
		"max":[168]
	},
	{
		"bufferView":15,
		"type":"VEC3",
		"componentType":5126,
		"count":169,
		"byteOffset":0,
		"min":[0.004179710987955332,
		0.0020972636993974449,
		4.46999758986255e-18],
		"max":[0.09299209713935852,
		0.12492213398218155,
		6.174534763745459e-18]
	},
	{
		"bufferView":15,
		"type":"VEC3",
		"componentType":5126,
		"count":169,
		"byteOffset":12,
		"min":[0.0,
		0.0,
		1.0],
		"max":[0.0,
		0.0,
		1.0]
	},
	{
		"bufferView":15,
		"type":"VEC2",
		"componentType":5126,
		"count":169,
		"byteOffset":24,
		"min":[0.0,
		0.0],
		"max":[0.7230814695358276,
		1.0]
	},
	{
		"bufferView":16,
		"type":"SCALAR",
		"componentType":5123,
		"count":1527,
		"byteOffset":0,
		"min":[0],
		"max":[574]
	},
	{
		"bufferView":17,
		"type":"VEC3",
		"componentType":5126,
		"count":575,
		"byteOffset":0,
		"min":[0.004179710987955332,
		0.0020972636993974449,
		-0.014583921059966088],
		"max":[0.09299209713935852,
		0.12492213398218155,
		-4.332980084476816e-18]
	},
	{
		"bufferView":17,
		"type":"VEC3",
		"componentType":5126,
		"count":575,
		"byteOffset":12,
		"min":[-1.0,
		-1.0,
		-1.0],
		"max":[1.0,
		1.0,
		0.0]
	},
	{
		"bufferView":17,
		"type":"VEC2",
		"componentType":5126,
		"count":575,
		"byteOffset":24,
		"min":[0.0,
		0.0],
		"max":[1.0,
		1.0]
	},
	{
		"bufferView":18,
		"type":"SCALAR",
		"componentType":5123,
		"count":513,
		"byteOffset":0,
		"min":[0],
		"max":[168]
	},
	{
		"bufferView":19,
		"type":"VEC3",
		"componentType":5126,
		"count":169,
		"byteOffset":0,
		"min":[0.004179710987955332,
		0.0020972636993974449,
		-2.825250933170382e-17],
		"max":[0.09299209713935852,
		0.12492213398218155,
		-4.332980084476816e-18]
	},
	{
		"bufferView":19,
		"type":"VEC3",
		"componentType":5126,
		"count":169,
		"byteOffset":12,
		"min":[0.0,
		0.0,
		1.0],
		"max":[0.0,
		0.0,
		1.0]
	},
	{
		"bufferView":19,
		"type":"VEC2",
		"componentType":5126,
		"count":169,
		"byteOffset":24,
		"min":[0.0,
		0.0],
		"max":[0.7230814695358276,
		1.0]
	}],
	"bufferViews":[{
		"buffer":0,
		"byteOffset":0,
		"byteLength":2416
	},
	{
		"buffer":0,
		"byteOffset":2416,
		"byteLength":3020
	},
	{
		"buffer":1,
		"byteOffset":0,
		"byteLength":3840,
		"target":34963
	},
	{
		"buffer":1,
		"byteOffset":3840,
		"byteLength":14560,
		"target":34962,
		"byteStride":32
	},
	{
		"buffer":2,
		"byteOffset":0,
		"byteLength":3072,
		"target":34963
	},
	{
		"buffer":2,
		"byteOffset":3072,
		"byteLength":10400,
		"target":34962,
		"byteStride":32
	},
	{
		"buffer":3,
		"byteOffset":0,
		"byteLength":1536,
		"target":34963
	},
	{
		"buffer":3,
		"byteOffset":1536,
		"byteLength":8192,
		"target":34962,
		"byteStride":32
	},
	{
		"buffer":4,
		"byteOffset":0,
		"byteLength":3072,
		"target":34963
	},
	{
		"buffer":4,
		"byteOffset":3072,
		"byteLength":10400,
		"target":34962,
		"byteStride":32
	},
	{
		"buffer":5,
		"byteOffset":0,
		"byteLength":7680,
		"target":34963
	},
	{
		"buffer":5,
		"byteOffset":7680,
		"byteLength":28992,
		"target":34962,
		"byteStride":32
	},
	{
		"buffer":6,
		"byteOffset":0,
		"byteLength":3054,
		"target":34963
	},
	{
		"buffer":6,
		"byteOffset":3056,
		"byteLength":18400,
		"target":34962,
		"byteStride":32
	},
	{
		"buffer":7,
		"byteOffset":0,
		"byteLength":1026,
		"target":34963
	},
	{
		"buffer":7,
		"byteOffset":1028,
		"byteLength":5408,
		"target":34962,
		"byteStride":32
	},
	{
		"buffer":8,
		"byteOffset":0,
		"byteLength":3054,
		"target":34963
	},
	{
		"buffer":8,
		"byteOffset":3056,
		"byteLength":18400,
		"target":34962,
		"byteStride":32
	},
	{
		"buffer":9,
		"byteOffset":0,
		"byteLength":1026,
		"target":34963
	},
	{
		"buffer":9,
		"byteOffset":1028,
		"byteLength":5408,
		"target":34962,
		"byteStride":32
	}],
	"buffers":[{
		"uri":"data:application/octet-stream;base64,",
		"byteLength":5436
	},
	{
		"uri":"data:application/octet-stream;base64,",
		"byteLength":18400
	},
	{
		"uri":"data:application/octet-stream;base64,",
		"byteLength":13472
	},
	{
		"uri":"data:application/octet-stream;base64,",
		"byteLength":9728
	},
	{
		"uri":"data:application/octet-stream;base64,",
		"byteLength":13472
	},
	{
		"uri":"data:application/octet-stream;base64,",
		"byteLength":36672
	},
	{
		"uri":"data:application/octet-stream;base64,",
		"byteLength":21456
	},
	{
		"uri":"data:application/octet-stream;base64,",
		"byteLength":6436
	},
	{
		"uri":"data:application/octet-stream;base64,",
		"byteLength":21456
	},
	{
		"uri":"data:application/octet-stream;base64,",
		"byteLength":6436
	}],
	"materials":[{
		"pbrMetallicRoughness":{
			"baseColorFactor":[0.0,
			0.0,
			0.0,
			1.0],
			"metallicFactor":0.0,
			"roughnessFactor":1.0
		},
		"emissiveFactor":[1.0,
		1.0,
		1.0],
		"alphaMode":"OPAQUE",
		"doubleSided":false,
		"name":"light"
	},
	{
		"pbrMetallicRoughness":{
			"baseColorFactor":[0.0,
			0.0,
			0.0,
			1.0],
			"metallicFactor":0.0,
			"roughnessFactor":1.0
		},
		"emissiveFactor":[0.0,
		0.0,
		0.0],
		"alphaMode":"OPAQUE",
		"doubleSided":false,
		"name":"dark"
	},
	{
		"pbrMetallicRoughness":{
			"baseColorFactor":[0.0,
			0.0,
			0.0,
			1.0],
			"metallicFactor":0.0,
			"roughnessFactor":1.0
		},
		"emissiveFactor":[0.5,
		0.5,
		0.5],
		"alphaMode":"OPAQUE",
		"doubleSided":false,
		"name":"mid"
	}],
	"animations":[{
		"samplers":[{
			"input":0,
			"interpolation":"LINEAR",
			"output":1
		},
		{
			"input":2,
			"interpolation":"LINEAR",
			"output":3
		}],
		"channels":[{
			"sampler":0,
			"target":{
				"node":2,
				"path":"translation"
			}
		},
		{
			"sampler":1,
			"target":{
				"node":2,
				"path":"rotation"
			}
		}]
	}]
}