{
	"asset":{
		"version":"2.0",
		"generator":"Maxon Cinema 4D 2025.3.3 (#200000219)"
	},
	"scenes":[{
		"nodes":[0,
		1]
	}],
	"nodes":[{
		"name":"bobing",
		"translation":[0.0,
		-0.047126635909080508,
		0.0],
		"rotation":[0.4794958829879761,
		-0.3842688202857971,
		0.2197539359331131,
		0.757713258266449],
		"scale":[1.0,
		1.0,
		1.0],
		"children":[2,
		3,
		4,
		5,
		6]
	},
	{
		"name":"RS Camera",
		"camera":0,
		"translation":[-6.661566734313965,
		0.0,
		23.231643676757814],
		"rotation":[0.0,
		-0.13917310535907746,
		0.0,
		0.9902680516242981],
		"scale":[1.0,
		1.0,
		1.0]
	},
	{
		"name":"border_3",
		"mesh":0,
		"translation":[-0.00001931443330249749,
		0.0002414099290035665,
		9.010587600380988e-17],
		"rotation":[6.933366352181904e-17,
		-2.769157499727446e-18,
		0.03990776464343071,
		0.9992033839225769],
		"scale":[1.0,
		1.0,
		1.0]
	},
	{
		"name":"border_2",
		"mesh":1,
		"translation":[-0.00001931443330249749,
		0.0002414099290035665,
		9.010587600380988e-17],
		"rotation":[0.0,
		0.0,
		0.03990776464343071,
		0.9992033839225769],
		"scale":[1.0,
		1.0,
		1.0]
	},
	{
		"name":"border_1",
		"mesh":2,
		"translation":[-0.00001931440237967763,
		0.0002414095652056858,
		7.252805023227893e-10],
		"rotation":[5.3378933217995697e-11,
		1.432750451613174e-8,
		0.03990775719285011,
		0.9992033839225769],
		"scale":[1.0,
		1.0,
		1.0]
	},
	{
		"name":"Hemi_icon",
		"translation":[-0.01345994882285595,
		-0.061332374811172488,
		-1.9984015237346207e-17],
		"rotation":[0.706543505191803,
		0.02821904979646206,
		-0.02821904979646206,
		-0.706543505191803],
		"scale":[9.729999542236329,
		9.729999542236329,
		9.729999542236329],
		"children":[7,
		8]
	},
	{
		"name":"main_body",
		"mesh":3,
		"translation":[6.128516638317603e-18,
		-1.0393483037698165e-17,
		-9.621414987817708e-18],
		"rotation":[4.1600196789602447e-17,
		-1.6614944171184064e-18,
		0.03990776464343071,
		0.9992033839225769],
		"scale":[1.0,
		1.0,
		1.0]
	},
	{
		"name":"Hemi_icon-dark",
		"mesh":4
	},
	{
		"name":"Hemi_icon-mid",
		"mesh":5
	}],
	"meshes":[{
		"name":"border_3",
		"primitives":[{
			"attributes":{
				"POSITION":5,
				"NORMAL":6,
				"TEXCOORD_0":7
			},
			"indices":4,
			"material":0
		}]
	},
	{
		"name":"border_2",
		"primitives":[{
			"attributes":{
				"POSITION":9,
				"NORMAL":10,
				"TEXCOORD_0":11
			},
			"indices":8,
			"material":1
		}]
	},
	{
		"name":"border_1",
		"primitives":[{
			"attributes":{
				"POSITION":13,
				"NORMAL":14,
				"TEXCOORD_0":15
			},
			"indices":12,
			"material":1
		}]
	},
	{
		"name":"main_body",
		"primitives":[{
			"attributes":{
				"POSITION":17,
				"NORMAL":18,
				"TEXCOORD_0":19
			},
			"indices":16,
			"material":2
		}]
	},
	{
		"name":"Hemi_icon-dark",
		"primitives":[{
			"attributes":{
				"POSITION":21,
				"NORMAL":22,
				"TEXCOORD_0":23
			},
			"indices":20,
			"material":1
		}]
	},
	{
		"name":"Hemi_icon-mid",
		"primitives":[{
			"attributes":{
				"POSITION":25,
				"NORMAL":26,
				"TEXCOORD_0":27
			},
			"indices":24,
			"material":0
		}]
	}],
	"cameras":[{
		"type":"perspective",
		"perspective":{
			"znear":0.009999999776482582,
			"zfar":10000000000.0,
			"aspectRatio":1.0,
			"yfov":0.17951634526252747
		}
	}],
	"accessors":[{
		"bufferView":0,
		"type":"SCALAR",
		"componentType":5126,
		"count":151,
		"byteOffset":0,
		"min":[0.0],
		"max":[6.0]
	},
	{
		"bufferView":0,
		"type":"VEC3",
		"componentType":5126,
		"count":151,
		"byteOffset":604,
		"min":[0.0,
		-0.047126635909080508,
		0.0],
		"max":[0.0,
		0.04950588941574097,
		0.0]
	},
	{
		"bufferView":1,
		"type":"SCALAR",
		"componentType":5126,
		"count":151,
		"byteOffset":0,
		"min":[0.0],
		"max":[6.0]
	},
	{
		"bufferView":1,
		"type":"VEC4",
		"componentType":5126,
		"count":151,
		"byteOffset":604,
		"min":[0.46652525663375857,
		-0.39844927191734316,
		0.21536464989185334,
		0.7466248869895935],
		"max":[0.4904692769050598,
		-0.38191163539886477,
		0.2317044734954834,
		0.7626013159751892]
	},
	{
		"bufferView":2,
		"type":"SCALAR",
		"componentType":5123,
		"count":768,
		"byteOffset":0,
		"min":[0],
		"max":[767]
	},
	{
		"bufferView":3,
		"type":"VEC3",
		"componentType":5126,
		"count":768,
		"byteOffset":0,
		"min":[-1.0,
		-0.1093805655837059,
		-1.0],
		"max":[1.0,
		0.1093805655837059,
		1.0]
	},
	{
		"bufferView":3,
		"type":"VEC3",
		"componentType":5126,
		"count":768,
		"byteOffset":12,
		"min":[0.0,
		-1.0,
		0.0],
		"max":[0.0,
		1.0,
		0.0]
	},
	{
		"bufferView":3,
		"type":"VEC2",
		"componentType":5126,
		"count":768,
		"byteOffset":24,
		"min":[0.0,
		0.0],
		"max":[1.0,
		1.0]
	},
	{
		"bufferView":4,
		"type":"SCALAR",
		"componentType":5123,
		"count":1536,
		"byteOffset":0,
		"min":[0],
		"max":[1535]
	},
	{
		"bufferView":5,
		"type":"VEC3",
		"componentType":5126,
		"count":1536,
		"byteOffset":0,
		"min":[-0.8991080522537231,
		-0.1093805655837059,
		-0.8991080522537231],
		"max":[0.8991080522537231,
		0.1093805655837059,
		0.8991080522537231]
	},
	{
		"bufferView":5,
		"type":"VEC3",
		"componentType":5126,
		"count":1536,
		"byteOffset":12,
		"min":[-1.0,
		0.0,
		-1.0],
		"max":[1.0,
		0.0,
		1.0]
	},
	{
		"bufferView":5,
		"type":"VEC2",
		"componentType":5126,
		"count":1536,
		"byteOffset":24,
		"min":[0.0,
		0.0],
		"max":[1.0,
		1.0]
	},
	{
		"bufferView":6,
		"type":"SCALAR",
		"componentType":5123,
		"count":3840,
		"byteOffset":0,
		"min":[0],
		"max":[3839]
	},
	{
		"bufferView":7,
		"type":"VEC3",
		"componentType":5126,
		"count":3840,
		"byteOffset":0,
		"min":[-1.0427145957946778,
		-0.13355699181556703,
		-1.0427145957946778],
		"max":[1.0427145957946778,
		0.13355699181556703,
		1.0427145957946778]
	},
	{
		"bufferView":7,
		"type":"VEC3",
		"componentType":5126,
		"count":3840,
		"byteOffset":12,
		"min":[-1.0,
		-1.0,
		-1.0],
		"max":[1.0,
		1.0,
		1.0]
	},
	{
		"bufferView":7,
		"type":"VEC2",
		"componentType":5126,
		"count":3840,
		"byteOffset":24,
		"min":[0.000030517578125,
		0.000030517578125],
		"max":[1.0,
		1.0]
	},
	{
		"bufferView":8,
		"type":"SCALAR",
		"componentType":5123,
		"count":1920,
		"byteOffset":0,
		"min":[0],
		"max":[1919]
	},
	{
		"bufferView":9,
		"type":"VEC3",
		"componentType":5126,
		"count":1920,
		"byteOffset":0,
		"min":[-0.9469872117042542,
		-0.03932289406657219,
		-0.9469872117042542],
		"max":[0.9469872117042542,
		0.03932289406657219,
		0.9469872117042542]
	},
	{
		"bufferView":9,
		"type":"VEC3",
		"componentType":5126,
		"count":1920,
		"byteOffset":12,
		"min":[-1.0,
		-1.0,
		-1.0],
		"max":[1.0,
		1.0,
		1.0]
	},
	{
		"bufferView":9,
		"type":"VEC2",
		"componentType":5126,
		"count":1920,
		"byteOffset":24,
		"min":[0.0,
		0.0],
		"max":[1.0,
		1.0]
	},
	{
		"bufferView":10,
		"type":"SCALAR",
		"componentType":5123,
		"count":372,
		"byteOffset":0,
		"min":[0],
		"max":[371]
	},
	{
		"bufferView":11,
		"type":"VEC3",
		"componentType":5126,
		"count":372,
		"byteOffset":0,
		"min":[-0.052231546491384509,
		-0.0547182559967041,
		-2.228896476757318e-18],
		"max":[0.052231546491384509,
		0.0547182559967041,
		0.019433841109275819]
	},
	{
		"bufferView":11,
		"type":"VEC3",
		"componentType":5126,
		"count":372,
		"byteOffset":12,
		"min":[-0.9999592900276184,
		-1.0,
		0.0],
		"max":[0.9999586939811707,
		1.0,
		0.0]
	},
	{
		"bufferView":11,
		"type":"VEC2",
		"componentType":5126,
		"count":372,
		"byteOffset":24,
		"min":[0.0,
		0.0],
		"max":[1.0,
		1.0]
	},
	{
		"bufferView":12,
		"type":"SCALAR",
		"componentType":5123,
		"count":360,
		"byteOffset":0,
		"min":[0],
		"max":[359]
	},
	{
		"bufferView":13,
		"type":"VEC3",
		"componentType":5126,
		"count":360,
		"byteOffset":0,
		"min":[-0.052231546491384509,
		-0.0547182559967041,
		-2.228896476757318e-18],
		"max":[0.052231546491384509,
		0.0547182559967041,
		0.019433841109275819]
	},
	{
		"bufferView":13,
		"type":"VEC3",
		"componentType":5126,
		"count":360,
		"byteOffset":12,
		"min":[0.0,
		0.0,
		-1.0],
		"max":[0.0,
		0.0,
		1.0]
	},
	{
		"bufferView":13,
		"type":"VEC2",
		"componentType":5126,
		"count":360,
		"byteOffset":24,
		"min":[0.0,
		0.0],
		"max":[0.9545543193817139,
		1.0]
	}],
	"bufferViews":[{
		"buffer":0,
		"byteOffset":0,
		"byteLength":2416
	},
	{
		"buffer":0,
		"byteOffset":2416,
		"byteLength":3020
	},
	{
		"buffer":1,
		"byteOffset":0,
		"byteLength":1536,
		"target":34963
	},
	{
		"buffer":1,
		"byteOffset":1536,
		"byteLength":24576,
		"target":34962,
		"byteStride":32
	},
	{
		"buffer":2,
		"byteOffset":0,
		"byteLength":3072,
		"target":34963
	},
	{
		"buffer":2,
		"byteOffset":3072,
		"byteLength":49152,
		"target":34962,
		"byteStride":32
	},
	{
		"buffer":3,
		"byteOffset":0,
		"byteLength":7680,
		"target":34963
	},
	{
		"buffer":3,
		"byteOffset":7680,
		"byteLength":122880,
		"target":34962,
		"byteStride":32
	},
	{
		"buffer":4,
		"byteOffset":0,
		"byteLength":3840,
		"target":34963
	},
	{
		"buffer":4,
		"byteOffset":3840,
		"byteLength":61440,
		"target":34962,
		"byteStride":32
	},
	{
		"buffer":5,
		"byteOffset":0,
		"byteLength":744,
		"target":34963
	},
	{
		"buffer":5,
		"byteOffset":744,
		"byteLength":11904,
		"target":34962,
		"byteStride":32
	},
	{
		"buffer":6,
		"byteOffset":0,
		"byteLength":720,
		"target":34963
	},
	{
		"buffer":6,
		"byteOffset":720,
		"byteLength":11520,
		"target":34962,
		"byteStride":32
	}],
	"buffers":[{
		"uri":"data:application/octet-stream;base64,",
		"byteLength":5436
	},
	{
		"uri":"data:application/octet-stream;base64,",
		"byteLength":26112
	},
	{
		"uri":"data:application/octet-stream;base64,",
		"byteLength":52224
	},
	{
		"uri":"data:application/octet-stream;base64,",
		"byteLength":130560
	},
	{
		"uri":"data:application/octet-stream;base64,",
		"byteLength":65280
	},
	{
		"uri":"data:application/octet-stream;base64,",
		"byteLength":12648
	},
	{
		"uri":"data:application/octet-stream;base64,",
		"byteLength":12240
	}],
	"materials":[{
		"pbrMetallicRoughness":{
			"baseColorFactor":[0.0,
			0.0,
			0.0,
			1.0],
			"metallicFactor":0.0,
			"roughnessFactor":1.0
		},
		"emissiveFactor":[0.5,
		0.5,
		0.5],
		"alphaMode":"OPAQUE",
		"doubleSided":false,
		"name":"mid"
	},
	{
		"pbrMetallicRoughness":{
			"baseColorFactor":[0.0,
			0.0,
			0.0,
			1.0],
			"metallicFactor":0.0,
			"roughnessFactor":1.0
		},
		"emissiveFactor":[0.0,
		0.0,
		0.0],
		"alphaMode":"OPAQUE",
		"doubleSided":false,
		"name":"dark"
	},
	{
		"pbrMetallicRoughness":{
			"baseColorFactor":[0.0,
			0.0,
			0.0,
			1.0],
			"metallicFactor":0.0,
			"roughnessFactor":1.0
		},
		"emissiveFactor":[1.0,
		1.0,
		1.0],
		"alphaMode":"OPAQUE",
		"doubleSided":false,
		"name":"light"
	}],
	"animations":[{
		"samplers":[{
			"input":0,
			"interpolation":"LINEAR",
			"output":1
		},
		{
			"input":2,
			"interpolation":"LINEAR",
			"output":3
		}],
		"channels":[{
			"sampler":0,
			"target":{
				"node":0,
				"path":"translation"
			}
		},
		{
			"sampler":1,
			"target":{
				"node":0,
				"path":"rotation"
			}
		}]
	}]
}