<?xml version="1.0" encoding="UTF-8"?>
<svg id="X_x5F_block" xmlns="http://www.w3.org/2000/svg" version="1.1" viewBox="0 0 80.08 80.04">
  <!-- Generator: Adobe Illustrator 29.5.0, SVG Export Plug-In . SVG Version: 2.1.0 Build 137)  -->
  <defs>
    <style>
      .st0 {
        fill: #ff4600;
      }
    </style>
  </defs>
  <path class="st0" d="M24.17,0C28.58,0,32.17,3.58,32.17,8v16h16v-16C48.17,3.58,51.75,0,56.17,0h16C76.58,0,80.17,3.58,80.17,8v64c0,4.42-3.58,8-8,8h-16c-4.42,0-8-3.58-8-8v-16h-16v16c0,4.42-3.58,8-8,8h-16c-4.42,0-8-3.58-8-8V8C.17,3.58,3.75,0,8.17,0h16Z"/>
</svg>