<?xml version="1.0" encoding="UTF-8"?>
<svg id="X_x5F_block" xmlns="http://www.w3.org/2000/svg" version="1.1" viewBox="0 0 80.08 80.04">
  <!-- Generator: Adobe Illustrator 29.5.0, SVG Export Plug-In . SVG Version: 2.1.0 Build 137)  -->
  <defs>
    <style>
      .st0 {
        fill: #ff4600;
      }
    </style>
  </defs>
  <path class="st0" d="M24.04.04c4.42,0,8,3.58,8,8v16h16v-16C48.04,3.62,51.62.04,56.04.04h16c4.42,0,8,3.58,8,8v16c0,4.42-3.58,8-8,8h-16v16h16c4.42,0,8,3.58,8,8v16c0,4.42-3.58,8-8,8h-16c-4.42,0-8-3.58-8-8v-16h-16v16c0,4.42-3.58,8-8,8h-16c-4.42,0-8-3.58-8-8v-16c0-4.42,3.58-8,8-8h16v-16h-16C3.62,32.04.04,28.46.04,24.04v-16C.04,3.62,3.62.04,8.04.04h16Z"/>
</svg>
